<?xml version="1.0" encoding="UTF-8"?>
<!DOCTYPE svg PUBLIC "-//W3C//DTD SVG 1.1//EN" "http://www.w3.org/Graphics/SVG/1.1/DTD/svg11.dtd">
<!-- Creator: CorelDRAW 2021.5 -->
<svg xmlns="http://www.w3.org/2000/svg" xml:space="preserve" width="1285px" height="372px" version="1.1" style="shape-rendering:geometricPrecision; text-rendering:geometricPrecision; image-rendering:optimizeQuality; fill-rule:evenodd; clip-rule:evenodd"
viewBox="0 0 1285 371.75"
 xmlns:xlink="http://www.w3.org/1999/xlink"
 xmlns:xodm="http://www.corel.com/coreldraw/odm/2003">
 <defs>
  <style type="text/css">
   <![CDATA[
    .fil0 {fill:white;fill-rule:nonzero}
   ]]>
  </style>
 </defs>
 <g id="Camada_x0020_1">
  <metadata id="CorelCorpID_0Corel-Layer"/>
  <path class="fil0" d="M254.65 34.6c22.9,0 42.83,3.63 59.81,10.91 16.97,7.27 32.87,18.45 47.68,33.54l-38.79 44.86c-18.86,-22.09 -41.76,-33.14 -68.7,-33.14 -26.94,0 -48.7,9.09 -65.27,27.28 -16.57,18.18 -24.85,41.55 -24.85,70.11 0,28.56 8.62,52 25.86,70.32 17.25,18.32 40.01,27.48 68.3,27.48 17.51,0 33.95,-4.98 49.3,-14.95l0 -48.09 -64.25 0 0 -52.94 125.68 0 0 131.34c-28.83,27.21 -65.74,40.81 -110.73,40.81 -45.53,0 -82.98,-14.61 -112.35,-43.84 -29.36,-29.24 -44.05,-65.94 -44.05,-110.13 0,-44.18 14.28,-80.82 42.84,-109.92 28.56,-29.09 65.06,-43.64 109.52,-43.64z"/>
  <path id="_1" class="fil0" d="M495.1 127.95c27.21,0 47.15,9.02 59.81,27.07l3.23 -23.03 53.35 0 0 204.89 -53.35 0 -3.23 -22.63c-12.93,17.78 -32.87,26.67 -59.81,26.67 -26.94,0 -48.9,-9.97 -65.87,-29.9 -16.98,-19.94 -25.46,-45.4 -25.46,-76.38 0,-30.99 8.48,-56.51 25.46,-76.58 16.97,-20.08 38.93,-30.11 65.87,-30.11zm14.55 51.73c-13.74,0 -24.85,4.98 -33.34,14.95 -8.49,9.97 -12.73,23.3 -12.73,40.01 0,16.7 4.24,29.97 12.73,39.8 8.49,9.84 19.6,14.75 33.34,14.75 17.51,0 31.52,-8.48 42.03,-25.46l0 -58.19c-10.51,-17.24 -24.52,-25.86 -42.03,-25.86z"/>
  <path id="_2" class="fil0" d="M725.04 29.75l0 120.83c13.47,-15.09 32.47,-22.63 56.99,-22.63 26.94,0 48.89,10.03 65.87,30.11 16.97,20.07 25.46,45.59 25.46,76.58 0,30.98 -8.49,56.44 -25.46,76.38 -16.98,19.93 -38.93,29.9 -65.87,29.9 -26.68,0 -46.75,-8.89 -60.22,-26.67l-2.83 22.63 -53.34 0 0 -307.13 59.4 0zm42.44 149.93c-17.78,0 -31.93,8.62 -42.44,25.86l0 58.19c10.24,16.98 24.39,25.46 42.44,25.46 13.74,0 24.85,-4.91 33.34,-14.75 8.48,-9.83 12.73,-23.1 12.73,-39.8 0,-16.71 -4.25,-30.04 -12.73,-40.01 -8.49,-9.97 -19.6,-14.95 -33.34,-14.95z"/>
  <path id="_3" class="fil0" d="M970.75 131.99l0 204.89 -59.41 0 0 -204.89 59.41 0zm-54.35 -89.51c6.6,-6.6 14.88,-9.9 24.85,-9.9 9.97,0 18.25,3.3 24.85,9.9 6.6,6.6 9.9,14.88 9.9,24.85 0,9.97 -3.3,18.25 -9.9,24.85 -6.6,6.6 -14.88,9.9 -24.85,9.9 -9.97,0 -18.25,-3.3 -24.85,-9.9 -6.61,-6.6 -9.91,-14.88 -9.91,-24.85 0,-9.97 3.3,-18.25 9.91,-24.85z"/>
  <polygon id="_4" class="fil0" points="1182.11,131.99 1182.11,133.61 1097.24,286.77 1181.7,286.77 1181.7,336.88 1007.12,336.88 1007.12,335.26 1091.99,182.1 1012.37,182.1 1012.37,131.99 "/>
 </g>
</svg>
