<?xml version="1.0" encoding="UTF-8"?>
<!DOCTYPE svg PUBLIC "-//W3C//DTD SVG 1.1//EN" "http://www.w3.org/Graphics/SVG/1.1/DTD/svg11.dtd">
<!-- Creator: CorelDRAW 2021.5 -->
<svg xmlns="http://www.w3.org/2000/svg" xml:space="preserve" width="1285px" height="372px" version="1.1" style="shape-rendering:geometricPrecision; text-rendering:geometricPrecision; image-rendering:optimizeQuality; fill-rule:evenodd; clip-rule:evenodd"
viewBox="0 0 1285 371.75"
 xmlns:xlink="http://www.w3.org/1999/xlink"
 xmlns:xodm="http://www.corel.com/coreldraw/odm/2003">
 <defs>
  <style type="text/css">
   <![CDATA[
    .fil0 {fill:#2E5FFF;fill-rule:nonzero}
   ]]>
  </style>
 </defs>
 <g id="Camada_x0020_1">
  <metadata id="CorelCorpID_0Corel-Layer"/>
  <path class="fil0" d="M181.02 5.84c27.25,0 50.98,4.33 71.17,12.99 20.2,8.65 39.12,21.96 56.75,39.91l-46.17 53.38c-22.44,-26.29 -49.69,-39.43 -81.75,-39.43 -32.06,0 -57.95,10.82 -77.66,32.46 -19.72,21.64 -29.58,49.45 -29.58,83.43 0,33.99 10.26,61.88 30.78,83.68 20.52,21.8 47.61,32.7 81.27,32.7 20.84,0 40.4,-5.93 58.67,-17.79l0 -57.23 -76.46 0 0 -63 149.56 0 0 156.3c-34.31,32.38 -78.23,48.57 -131.77,48.57 -54.18,0 -98.74,-17.39 -133.69,-52.18 -34.94,-34.78 -52.42,-78.47 -52.42,-131.05 0,-52.57 16.99,-96.17 50.98,-130.8 33.98,-34.62 77.42,-51.94 130.32,-51.94z"/>
  <path id="_1" class="fil0" d="M467.16 116.93c32.38,0 56.1,10.74 71.17,32.22l3.85 -27.41 63.48 0 0 243.82 -63.48 0 -3.85 -26.93c-15.39,21.15 -39.11,31.73 -71.17,31.73 -32.06,0 -58.19,-11.86 -78.39,-35.58 -20.2,-23.73 -30.3,-54.02 -30.3,-90.89 0,-36.87 10.1,-67.25 30.3,-91.13 20.2,-23.89 46.33,-35.83 78.39,-35.83zm17.31 61.56c-16.35,0 -29.58,5.93 -39.68,17.79 -10.09,11.86 -15.14,27.73 -15.14,47.61 0,19.88 5.05,35.67 15.14,47.37 10.1,11.7 23.33,17.55 39.68,17.55 20.84,0 37.51,-10.1 50.01,-30.3l0 -69.25c-12.5,-20.51 -29.17,-30.77 -50.01,-30.77z"/>
  <path id="_2" class="fil0" d="M740.79 0.07l0 143.79c16.03,-17.95 38.63,-26.93 67.8,-26.93 32.06,0 58.19,11.94 78.39,35.83 20.2,23.88 30.3,54.26 30.3,91.13 0,36.87 -10.1,67.16 -30.3,90.89 -20.2,23.72 -46.33,35.58 -78.39,35.58 -31.73,0 -55.62,-10.58 -71.65,-31.73l-3.37 26.93 -63.47 0 0 -365.49 70.69 0zm50.49 178.42c-21.16,0 -37.99,10.26 -50.49,30.77l0 69.25c12.18,20.2 29.01,30.3 50.49,30.3 16.35,0 29.58,-5.85 39.68,-17.55 10.1,-11.7 15.14,-27.49 15.14,-47.37 0,-19.88 -5.04,-35.75 -15.14,-47.61 -10.1,-11.86 -23.33,-17.79 -39.68,-17.79z"/>
  <path id="_3" class="fil0" d="M1033.17 121.74l0 243.82 -70.69 0 0 -243.82 70.69 0zm-64.68 -106.52c7.86,-7.85 17.72,-11.78 29.58,-11.78 11.86,0 21.72,3.93 29.57,11.78 7.86,7.86 11.79,17.71 11.79,29.58 0,11.86 -3.93,21.72 -11.79,29.57 -7.85,7.86 -17.71,11.78 -29.57,11.78 -11.86,0 -21.72,-3.92 -29.58,-11.78 -7.85,-7.85 -11.78,-17.71 -11.78,-29.57 0,-11.87 3.93,-21.72 11.78,-29.58z"/>
  <polygon id="_4" class="fil0" points="1284.68,121.74 1284.68,123.66 1183.69,305.92 1284.2,305.92 1284.2,365.56 1076.45,365.56 1076.45,363.63 1177.44,181.37 1082.71,181.37 1082.71,121.74 "/>
 </g>
</svg>
